<svg width="102" height="24" viewBox="0 0 102 24" fill="none" xmlns="http://www.w3.org/2000/svg">
<path d="M7.104 24C4.928 23.44 3.336 22.336 2.328 20.688C1.32 19.04 1.008 17.024 1.392 14.64L2.112 10.08C2.368 8.512 2.888 7.096 3.672 5.832C4.456 4.552 5.456 3.472 6.672 2.592C7.888 1.712 9.264 1.088 10.8 0.719999L10.464 2.76C9.408 3 8.448 3.464 7.584 4.152C6.72 4.824 6 5.664 5.424 6.672C4.864 7.68 4.48 8.816 4.272 10.08L3.552 14.64C3.36 15.872 3.384 16.992 3.624 18C3.88 19.008 4.328 19.848 4.968 20.52C5.624 21.176 6.448 21.624 7.44 21.864L7.104 24ZM11.9186 21L14.0066 7.8H15.9026L15.6626 9.384H16.0946L15.6626 9.96C15.7906 9.224 16.0786 8.64 16.5266 8.208C16.9906 7.776 17.5586 7.56 18.2306 7.56C18.9666 7.56 19.4866 7.832 19.7906 8.376C20.1106 8.92 20.1906 9.688 20.0306 10.68L19.5986 9.384H20.6066L20.0546 9.96C20.1826 9.224 20.4786 8.64 20.9426 8.208C21.4226 7.776 21.9986 7.56 22.6706 7.56C23.5026 7.56 24.0946 7.872 24.4466 8.496C24.8146 9.12 24.9106 9.944 24.7346 10.968L23.1506 21H21.1586L22.7426 10.944C22.8226 10.4 22.7746 9.976 22.5986 9.672C22.4226 9.368 22.1106 9.216 21.6626 9.216C21.2306 9.216 20.8626 9.368 20.5586 9.672C20.2706 9.96 20.0866 10.376 20.0066 10.92L18.3986 21H16.6706L18.2546 10.944C18.3506 10.384 18.2946 9.96 18.0866 9.672C17.8946 9.368 17.5746 9.216 17.1266 9.216C16.6786 9.216 16.3186 9.368 16.0466 9.672C15.7746 9.96 15.5986 10.376 15.5186 10.92L13.9106 21H11.9186ZM28.8053 21.24C28.2453 21.24 27.6853 21.184 27.1253 21.072C26.5813 20.96 26.0773 20.808 25.6132 20.616L26.2133 18.864C26.5333 19.008 26.9093 19.144 27.3413 19.272C27.7893 19.4 28.2693 19.464 28.7812 19.464C29.3253 19.464 29.8293 19.352 30.2933 19.128C30.7733 18.888 31.1973 18.56 31.5653 18.144C31.9493 17.728 32.2693 17.24 32.5253 16.68C32.7973 16.104 33.0053 15.488 33.1493 14.832C33.2933 14.16 33.3653 13.456 33.3653 12.72C33.3653 12.064 33.2533 11.512 33.0293 11.064C32.8053 10.6 32.4773 10.248 32.0453 10.008C31.6293 9.768 31.1253 9.648 30.5333 9.648C29.9733 9.648 29.4373 9.728 28.9253 9.888C28.4293 10.032 27.9333 10.216 27.4373 10.44V8.664C27.8853 8.44 28.3813 8.256 28.9253 8.112C29.4853 7.968 30.0933 7.896 30.7493 7.896C31.7093 7.896 32.5413 8.072 33.2453 8.424C33.9653 8.776 34.5253 9.312 34.9253 10.032C35.3253 10.736 35.5253 11.624 35.5253 12.696C35.5253 13.624 35.4213 14.512 35.2133 15.36C35.0213 16.192 34.7333 16.968 34.3493 17.688C33.9653 18.408 33.5013 19.032 32.9573 19.56C32.4133 20.088 31.7893 20.504 31.0853 20.808C30.3973 21.096 29.6373 21.24 28.8053 21.24ZM38.7683 9.096L40.1363 2.76H42.0323L40.6643 9.096H38.7683ZM42.0846 21L44.1726 7.8H46.2846L45.8766 10.32H46.3806L45.4446 11.88C45.6686 10.456 46.1486 9.384 46.8846 8.664C47.6206 7.928 48.5966 7.56 49.8126 7.56C51.2046 7.56 52.2366 8 52.9086 8.88C53.5966 9.744 53.8286 10.92 53.6046 12.408L53.4606 13.2H51.3006L51.3966 12.6C51.5726 11.56 51.4526 10.768 51.0366 10.224C50.6206 9.664 49.9486 9.384 49.0206 9.384C48.1086 9.384 47.3486 9.664 46.7406 10.224C46.1326 10.784 45.7406 11.576 45.5646 12.6L44.2446 21H42.0846ZM54.2432 21L54.5072 19.752L56.3552 19.344L58.3952 9.816L56.6912 9.384L56.9552 8.136H62.5472L62.2832 9.384L60.4592 9.816L58.4192 19.344L60.0992 19.752L59.8352 21H54.2432ZM69.5059 21C68.3699 21 67.5299 20.696 66.9859 20.088C66.4579 19.48 66.2819 18.624 66.4579 17.52L67.6819 9.768H63.9619L64.2739 7.8H67.9939L68.5699 4.2H70.7299L70.1539 7.8H75.4339L75.1219 9.768H69.8419L68.6179 17.52C68.4579 18.528 68.8579 19.032 69.8179 19.032H73.4179L73.1059 21H69.5059ZM81.8805 21.24C80.5205 21.24 79.4885 20.928 78.7845 20.304C78.0805 19.664 77.7525 18.816 77.8005 17.76H79.9605C79.9925 18.224 80.1925 18.6 80.5605 18.888C80.9445 19.176 81.4885 19.32 82.1925 19.32H83.2005C84.0485 19.32 84.7045 19.144 85.1685 18.792C85.6485 18.424 85.9365 17.952 86.0325 17.376C86.1125 16.816 85.9925 16.368 85.6725 16.032C85.3525 15.68 84.8405 15.448 84.1365 15.336L82.4085 15.048C81.1445 14.84 80.2405 14.448 79.6965 13.872C79.1525 13.296 78.9685 12.448 79.1445 11.328C79.3205 10.144 79.8405 9.224 80.7045 8.568C81.5685 7.896 82.7525 7.56 84.2565 7.56H85.1685C86.4325 7.56 87.4005 7.864 88.0725 8.472C88.7445 9.08 89.0805 9.888 89.0805 10.896H86.9205C86.8885 10.48 86.6965 10.144 86.3445 9.888C86.0085 9.616 85.5125 9.48 84.8565 9.48H83.9445C83.1285 9.48 82.5045 9.64 82.0725 9.96C81.6565 10.28 81.4005 10.744 81.3045 11.352C81.2245 11.896 81.3125 12.304 81.5685 12.576C81.8405 12.848 82.3125 13.04 82.9845 13.152L84.7125 13.44C86.0885 13.664 87.0565 14.072 87.6165 14.664C88.1925 15.256 88.3925 16.128 88.2165 17.28C88.0085 18.496 87.4565 19.464 86.5605 20.184C85.6805 20.888 84.4565 21.24 82.8885 21.24H81.8805ZM91.9271 24L92.2631 21.864C93.3351 21.624 94.2951 21.176 95.1431 20.52C96.0071 19.848 96.7271 19.008 97.3031 18C97.8791 16.992 98.2631 15.872 98.4551 14.64L99.1751 10.08C99.3831 8.816 99.3591 7.68 99.1031 6.672C98.8471 5.664 98.3911 4.824 97.7351 4.152C97.0951 3.464 96.2791 3 95.2871 2.76L95.6231 0.719999C97.0471 1.088 98.2231 1.712 99.1511 2.592C100.095 3.472 100.759 4.552 101.143 5.832C101.527 7.096 101.591 8.512 101.335 10.08L100.615 14.64C100.359 16.224 99.8471 17.656 99.0791 18.936C98.3111 20.2 97.3191 21.264 96.1031 22.128C94.9031 22.992 93.5111 23.616 91.9271 24Z" fill="black"/>
</svg>
