<svg width="200" height="200" viewBox="0 0 200 200" fill="none" xmlns="http://www.w3.org/2000/svg">
<rect width="200" height="200" rx="25" fill="white"/>
<rect width="200" height="200" rx="25" fill="url(#paint0_linear)"/>
<path d="M73.7694 109.325C74.9771 107.624 76.1849 105.838 77.3927 103.968C78.6005 102.04 80.3485 98.9498 82.6369 94.6975C84.9253 90.4453 86.0695 88.0073 86.0695 87.3836V49.1978C86.0695 42.5642 88.5168 36.696 93.4114 31.5932C98.3696 26.4904 103.995 23.9389 110.288 23.9389C117.725 23.9389 121.444 27.0289 121.444 33.2089C121.444 38.6519 119.728 44.9736 116.295 52.1739C112.863 59.3744 105.966 70.2888 95.6048 84.917V120.466C98.5925 120.296 101.294 119.502 103.709 118.085C106.125 116.667 134.266 102.037 138.969 95.9695L141.925 98.0957C134.551 108.982 102.724 125.312 95.6053 125.312V154.738C95.6053 161.258 93.5711 166.474 89.5029 170.386C85.4982 174.355 80.5083 176.34 74.5331 176.34C68.2401 176.34 63.3137 173.902 59.7541 169.026L67.5727 162.137L69.0983 163.328C68.7169 164.405 68.5262 165.227 68.5262 165.794C68.5262 167.948 69.289 169.791 70.8145 171.322C72.3401 172.853 74.3106 173.618 76.7262 173.618C82.9556 173.618 86.0704 167.977 86.0704 156.694V125.313C82.8921 124.86 79.6501 123.584 76.3448 121.486C76.9805 119.048 78.4108 116.61 80.6356 114.172C82.4154 116.723 84.2271 118.311 86.0704 118.935V96.3976C83.5278 101.897 80.3495 106.972 76.5354 111.621L73.7694 109.325ZM95.6039 76.5823C107.618 59.4026 113.625 45.6534 113.625 35.3347C113.625 30.1751 111.527 27.5954 107.332 27.5954C104.217 27.5954 101.484 29.0696 99.132 32.0178C96.78 34.9094 95.6041 38.7365 95.6041 43.499L95.6039 76.5823Z" fill="#E0EFF1"/>
<path d="M122.599 99.9143L138.968 95.9723L141.923 98.0985L139.2 115.655L135.156 111.774L136.433 100.562L125.58 103.149L122.599 99.9143Z" fill="#E0EFF1"/>
<path d="M105.767 107.311L122.566 108.226L124.806 111.113L117.288 127.169L114.495 122.287L118.853 111.9L107.72 111.268L105.767 107.311Z" fill="#E0EFF1"/>
<defs>
<linearGradient id="paint0_linear" x1="321.5" y1="369" x2="48.5" y2="48" gradientUnits="userSpaceOnUse">
<stop stop-color="#222244"/>
<stop offset="1" stop-color="#5151EE"/>
</linearGradient>
</defs>
</svg>
