<?xml version="1.0" encoding="UTF-8"?>
<!-- Created with Inkscape (http://www.inkscape.org/) -->
<svg width="48" height="48" version="1.1" viewBox="0 0 12.7 12.7" xmlns="http://www.w3.org/2000/svg" xmlns:xlink="http://www.w3.org/1999/xlink">
 <defs>
  <linearGradient id="linearGradient1164" x1="6.3531" x2="12.7" y1="7.0145" y2="12.7" gradientUnits="userSpaceOnUse">
   <stop stop-color="#a0a5ac" offset="0"/>
   <stop stop-color="#fefbf8" stop-opacity="0" offset="1"/>
  </linearGradient>
 </defs>
 <rect width="12.7" height="12.7" ry="3.1188" fill="url(#linearGradient1164)" stroke-width=".30191"/>
 <g transform="matrix(.26458 0 0 .26458 1.5906 1.4583)">
  <g fill="#31373d">
   <path d="m32.769 33.359c-2.739-3.286-3.903-6.569-4.397-8.746-0.064-0.283-0.249-0.524-0.506-0.661s-0.56-0.154-0.83-0.05l-7.112 2.749c-0.303 0.117-0.53 0.374-0.609 0.688-0.079 0.315-0.019 0.665 0.211 0.896 5.966 5.981 12.419 6.765 12.474 6.765 0.354 0 0.688-0.188 0.867-0.503 0.208-0.362 0.169-0.816-0.098-1.138z"/>
   <ellipse cx="18" cy="16" rx="18" ry="14"/>
   <circle cx="18" cy="16" r="5"/>
  </g>
  <path d="m18 7c-4.963 0-9 4.037-9 9s4.037 9 9 9 9-4.037 9-9-4.037-9-9-9zm0 14c-2.761 0-5-2.239-5-5s2.239-5 5-5 5 2.239 5 5-2.239 5-5 5z" fill="#fff"/>
 </g>
</svg>
